<?xml version="1.0" encoding="UTF-8" standalone="no"?>
<!-- Created with Inkscape (http://www.inkscape.org/) -->

<svg
   width="193mm"
   height="150mm"
   viewBox="0 0 193 150"
   version="1.1"
   id="svg5"
   xml:space="preserve"
   inkscape:version="1.2.2 (732a01da63, 2022-12-09)"
   sodipodi:docname="Logo-dark.svg"
   inkscape:export-filename="Logo-dark.png"
   inkscape:export-xdpi="96"
   inkscape:export-ydpi="96"
   xmlns:inkscape="http://www.inkscape.org/namespaces/inkscape"
   xmlns:sodipodi="http://sodipodi.sourceforge.net/DTD/sodipodi-0.dtd"
   xmlns="http://www.w3.org/2000/svg"
   xmlns:svg="http://www.w3.org/2000/svg"><sodipodi:namedview
     id="namedview7"
     pagecolor="#ffffff"
     bordercolor="#000000"
     borderopacity="0.25"
     inkscape:showpageshadow="2"
     inkscape:pageopacity="0.0"
     inkscape:pagecheckerboard="0"
     inkscape:deskcolor="#d1d1d1"
     inkscape:document-units="mm"
     showgrid="false"
     inkscape:zoom="0.74564394"
     inkscape:cx="472.07518"
     inkscape:cy="344.66853"
     inkscape:window-width="1920"
     inkscape:window-height="1017"
     inkscape:window-x="-8"
     inkscape:window-y="-8"
     inkscape:window-maximized="1"
     inkscape:current-layer="layer1" /><defs
     id="defs2"><inkscape:path-effect
       effect="skeletal"
       id="path-effect4617"
       is_visible="true"
       lpeversion="1"
       pattern="M 0,0 H 1"
       copytype="single_stretched"
       prop_scale="1"
       scale_y_rel="false"
       spacing="0"
       normal_offset="0"
       tang_offset="0"
       prop_units="false"
       vertical_pattern="false"
       hide_knot="false"
       fuse_tolerance="0" /><rect
       x="206.73309"
       y="-22.759605"
       width="280.70181"
       height="187.76675"
       id="rect2084" /><inkscape:path-effect
       effect="envelope"
       id="path-effect1979"
       is_visible="true"
       lpeversion="1"
       yy="true"
       xx="true"
       bendpath1="m 49.248163,54.680988 8.174664,1.003635"
       bendpath2="m 54.819648,54.837806 v 4.842287"
       bendpath3="m 49.593163,59.680093 h 5.226485"
       bendpath4="m 49.593163,54.837806 v 4.842287"
       bendpath1-nodetypes="cc" /><inkscape:path-effect
       effect="skeletal"
       id="path-effect1930"
       is_visible="true"
       lpeversion="1"
       pattern="M 0,0 H 1"
       copytype="single_stretched"
       prop_scale="1"
       scale_y_rel="false"
       spacing="0"
       normal_offset="0"
       tang_offset="0"
       prop_units="false"
       vertical_pattern="false"
       hide_knot="false"
       fuse_tolerance="0" /><rect
       x="255.09724"
       y="380.27509"
       width="147.93744"
       height="165.95546"
       id="rect871" /><rect
       x="214.31963"
       y="355.61884"
       width="237.07924"
       height="255.09726"
       id="rect3179" /><inkscape:path-effect
       effect="fillet_chamfer"
       id="path-effect3123"
       is_visible="true"
       lpeversion="1"
       nodesatellites_param="F,0,0,1,0,0.79375,0,1 @ F,0,0,1,0,0.79375,0,1 @ F,0,0,1,0,0.79375,0,1 @ F,0,0,1,0,0.79375,0,1 @ F,0,0,1,0,0.79375,0,1 @ F,0,0,1,0,0.79375,0,1 @ F,0,0,1,0,0.79375,0,1"
       unit="px"
       method="auto"
       mode="F"
       radius="3"
       chamfer_steps="1"
       flexible="false"
       use_knot_distance="true"
       apply_no_radius="true"
       apply_with_radius="true"
       only_selected="false"
       hide_knots="false" /><inkscape:path-effect
       effect="envelope"
       id="path-effect3121"
       is_visible="true"
       lpeversion="1"
       yy="true"
       xx="true"
       bendpath1="M 90.480504,47.328377 118.39778,46.840474"
       bendpath2="m 119.10746,47.328377 3.01613,22.634467"
       bendpath3="m 88.79502,68.543489 30.31244,0.887097"
       bendpath4="M 91.278891,47.949345 90.480504,69.430586"
       bendpath1-nodetypes="cc"
       bendpath2-nodetypes="cc"
       bendpath3-nodetypes="cc"
       bendpath4-nodetypes="cc" /><inkscape:path-effect
       effect="fillet_chamfer"
       id="path-effect3103"
       is_visible="true"
       lpeversion="1"
       nodesatellites_param="F,0,0,1,0,0,0,1 @ F,0,0,1,0,0,0,1 @ F,0,0,1,0,0,0,1 @ F,0,0,1,0,0,0,1 @ F,0,0,1,0,0,0,1 @ F,0,0,1,0,0,0,1 @ F,0,0,1,0,0,0,1"
       unit="px"
       method="auto"
       mode="F"
       radius="0"
       chamfer_steps="1"
       flexible="false"
       use_knot_distance="true"
       apply_no_radius="true"
       apply_with_radius="true"
       only_selected="false"
       hide_knots="false" /><inkscape:path-effect
       effect="skeletal"
       id="path-effect3101"
       is_visible="true"
       lpeversion="1"
       pattern="M 0,0 H 1"
       copytype="single_stretched"
       prop_scale="1"
       scale_y_rel="false"
       spacing="0"
       normal_offset="0"
       tang_offset="0"
       prop_units="false"
       vertical_pattern="false"
       hide_knot="false"
       fuse_tolerance="0" /><inkscape:path-effect
       effect="fillet_chamfer"
       id="path-effect3088"
       is_visible="true"
       lpeversion="1"
       nodesatellites_param="F,0,0,1,0,0,0,1 @ F,0,0,1,0,0,0,1 @ F,0,0,1,0,0,0,1 @ F,0,0,1,0,0,0,1 @ F,0,0,1,0,0,0,1 @ F,0,0,1,0,0,0,1 @ F,0,0,1,0,0,0,1 @ F,0,0,1,0,0,0,1 @ F,0,0,1,0,0,0,1 @ F,0,0,1,0,0,0,1 @ F,0,0,1,0,0,0,1 @ F,0,0,1,0,0,0,1 @ F,0,0,1,0,0,0,1 @ F,0,0,1,0,0,0,1 @ F,0,0,1,0,0,0,1 @ F,0,0,1,0,0,0,1 @ F,0,0,1,0,0,0,1 @ F,0,0,1,0,0,0,1 @ F,0,0,1,0,0,0,1 @ F,0,0,1,0,0,0,1 @ F,0,0,1,0,0,0,1 @ F,0,0,1,0,0,0,1 @ F,0,0,1,0,0,0,1 @ F,0,0,1,0,0,0,1 @ F,0,0,1,0,0,0,1 @ F,0,0,1,0,0,0,1 @ F,0,0,1,0,0,0,1 @ F,0,0,1,0,0,0,1 @ F,0,0,1,0,0,0,1 @ F,0,0,1,0,0,0,1 @ F,0,0,1,0,0,0,1 @ F,0,0,1,0,0,0,1 @ F,0,0,1,0,0,0,1 @ F,0,0,1,0,0,0,1 @ F,0,0,1,0,0,0,1 @ F,0,0,1,0,0,0,1 @ F,0,0,1,0,0,0,1 @ F,0,0,1,0,0,0,1 @ F,0,0,1,0,0,0,1 @ F,0,0,1,0,0,0,1 @ F,0,0,1,0,0,0,1 @ F,0,0,1,0,0,0,1 @ F,0,0,1,0,0,0,1 @ F,0,0,1,0,0,0,1 @ F,0,0,1,0,0,0,1 @ F,0,0,1,0,0,0,1 @ F,0,0,1,0,0,0,1 @ F,0,0,1,0,0,0,1 @ F,0,0,1,0,0,0,1 @ F,0,0,1,0,0,0,1 @ F,0,0,1,0,0,0,1 @ F,0,0,1,0,0,0,1 @ F,0,0,1,0,0,0,1 @ F,0,0,1,0,0,0,1 @ F,0,0,1,0,0,0,1"
       unit="px"
       method="auto"
       mode="F"
       radius="0"
       chamfer_steps="1"
       flexible="false"
       use_knot_distance="true"
       apply_no_radius="true"
       apply_with_radius="true"
       only_selected="false"
       hide_knots="false" /><inkscape:path-effect
       effect="fillet_chamfer"
       id="path-effect3086"
       is_visible="true"
       lpeversion="1"
       nodesatellites_param="F,0,0,1,0,0.52916667,0,1 @ F,0,0,1,0,0.52916667,0,1 @ F,0,0,1,0,0.52916667,0,1 @ F,0,0,1,0,0.52916667,0,1 @ F,0,0,1,0,0.52916667,0,1 @ F,0,0,1,0,0.52916667,0,1 @ F,0,0,1,0,0.52916667,0,1 @ F,0,0,1,0,0.52916667,0,1 @ F,0,0,1,0,0.52916667,0,1 @ F,0,0,1,0,0.52916667,0,1 @ F,0,0,1,0,0.52916667,0,1 @ F,0,0,1,0,0.52916667,0,1 @ F,0,0,1,0,0.52916667,0,1 @ F,0,0,1,0,0.52916667,0,1 @ F,0,0,1,0,0.52916667,0,1 @ F,0,0,1,0,0.52916667,0,1 @ F,0,0,1,0,0.52916667,0,1 @ F,0,0,1,0,0.52916667,0,1 @ F,0,0,1,0,0.52916667,0,1 @ F,0,0,1,0,0.52916667,0,1 @ F,0,0,1,0,0.52916667,0,1 @ F,0,0,1,0,0.52916667,0,1 @ F,0,0,1,0,0.52916667,0,1 @ F,0,0,1,0,0.52916667,0,1 @ F,0,0,1,0,0.52916667,0,1 @ F,0,0,1,0,0.52916667,0,1 @ F,0,0,1,0,0.52916667,0,1 @ F,0,0,1,0,0.52916667,0,1 @ F,0,0,1,0,0.52916667,0,1 @ F,0,0,1,0,0.52916667,0,1 @ F,0,0,1,0,0.52916667,0,1 @ F,0,0,1,0,0.52916667,0,1 @ F,0,0,1,0,0.52916667,0,1 @ F,0,0,1,0,0.9441119,0,1 @ F,0,0,1,0,0.67391632,0,1 @ F,0,0,1,0,0.66307416,0,1 @ F,0,0,1,0,0.52916667,0,1 @ F,0,0,1,0,0.52916667,0,1 @ F,0,0,1,0,0.10421248,0,1 @ F,0,0,1,0,0.52916667,0,1 @ F,0,0,1,0,0.52916667,0,1 @ F,0,0,1,0,0.52916667,0,1 @ F,0,0,1,0,0.52916667,0,1 @ F,0,0,1,0,0.52916667,0,1 @ F,0,0,1,0,0.52916667,0,1 @ F,0,0,1,0,0.52916667,0,1 @ F,0,0,1,0,0.52916667,0,1 @ F,0,0,1,0,0.52916667,0,1 @ F,0,0,1,0,0.52916667,0,1 @ F,0,0,1,0,0.52916667,0,1 @ F,0,0,1,0,0.52916667,0,1 @ F,0,0,1,0,0.52916667,0,1 @ F,0,0,1,0,0.52916667,0,1 @ F,0,0,1,0,0.52916667,0,1 @ F,0,0,1,0,0.52916667,0,1"
       unit="px"
       method="auto"
       mode="F"
       radius="2"
       chamfer_steps="1"
       flexible="false"
       use_knot_distance="true"
       apply_no_radius="true"
       apply_with_radius="true"
       only_selected="false"
       hide_knots="false" /><inkscape:path-effect
       effect="fillet_chamfer"
       id="path-effect3081"
       is_visible="true"
       lpeversion="1"
       nodesatellites_param="F,0,0,1,0,0,0,1 @ F,0,0,1,0,0,0,1 @ F,0,0,1,0,0,0,1 @ F,0,0,1,0,0,0,1 @ F,0,0,1,0,0,0,1 @ F,0,0,1,0,0,0,1 @ F,0,0,1,0,0,0,1 @ F,0,0,1,0,0,0,1 @ F,0,0,1,0,0,0,1 @ F,0,0,1,0,0,0,1 @ F,0,0,1,0,0,0,1 @ F,0,0,1,0,0,0,1 @ F,0,0,1,0,0,0,1 @ F,0,0,1,0,0,0,1 @ F,0,0,1,0,0,0,1 @ F,0,0,1,0,0,0,1 @ F,0,0,1,0,0,0,1 @ F,0,0,1,0,0,0,1 @ F,0,0,1,0,0,0,1 @ F,0,0,1,0,0,0,1 @ F,0,0,1,0,0,0,1 @ F,0,0,1,0,0,0,1 @ F,0,0,1,0,0,0,1 @ F,0,0,1,0,0,0,1 @ F,0,0,1,0,0,0,1 @ F,0,0,1,0,0,0,1 @ F,0,0,1,0,0,0,1 @ F,0,0,1,0,0,0,1 @ F,0,0,1,0,0,0,1 @ F,0,0,1,0,0,0,1 @ F,0,0,1,0,0,0,1 @ F,0,0,1,0,0,0,1 @ F,0,0,1,0,0,0,1 @ F,0,0,1,0,0,0,1 @ F,0,0,1,0,0,0,1 @ F,0,0,1,0,0,0,1 @ F,0,0,1,0,0,0,1 @ F,0,0,1,0,0,0,1 @ F,0,0,1,0,0,0,1 @ F,0,0,1,0,0,0,1 @ F,0,0,1,0,0,0,1 @ F,0,0,1,0,0,0,1 @ F,0,0,1,0,0,0,1 @ F,0,0,1,0,0,0,1 @ F,0,0,1,0,0,0,1 @ F,0,0,1,0,0,0,1 @ F,0,0,1,0,0,0,1 @ F,0,0,1,0,0,0,1 @ F,0,0,1,0,0,0,1 @ F,0,0,1,0,0,0,1 @ F,0,0,1,0,0,0,1 @ F,0,0,1,0,0,0,1 @ F,0,0,1,0,0,0,1 @ F,0,0,1,0,0,0,1 @ F,0,0,1,0,0,0,1 @ F,0,0,1,0,0,0,1 @ F,0,0,1,0,0,0,1 @ F,0,0,1,0,0,0,1 @ F,0,0,1,0,0,0,1 @ F,0,0,1,0,0,0,1 @ F,0,0,1,0,0,0,1 @ F,0,0,1,0,0,0,1 @ F,0,0,1,0,0,0,1 @ F,0,0,1,0,0,0,1 @ F,0,0,1,0,0,0,1 @ F,0,0,1,0,0,0,1 @ F,0,0,1,0,0,0,1 @ F,0,0,1,0,0,0,1 @ F,0,0,1,0,0,0,1 @ F,0,0,1,0,0,0,1 @ F,0,0,1,0,0,0,1 @ F,0,0,1,0,0,0,1 @ F,0,0,1,0,0,0,1 @ F,0,0,1,0,0,0,1 @ F,0,0,1,0,0,0,1 @ F,0,0,1,0,0,0,1 @ F,0,0,1,0,0,0,1 @ F,0,0,1,0,0,0,1 @ F,0,0,1,0,0,0,1 @ F,0,0,1,0,0,0,1 @ F,0,0,1,0,0,0,1 @ F,0,0,1,0,0,0,1 @ F,0,0,1,0,0,0,1 @ F,0,0,1,0,0,0,1 @ F,0,0,1,0,0,0,1 @ F,0,0,1,0,0,0,1 @ F,0,0,1,0,0,0,1"
       unit="px"
       method="auto"
       mode="F"
       radius="78"
       chamfer_steps="1"
       flexible="false"
       use_knot_distance="true"
       apply_no_radius="true"
       apply_with_radius="true"
       only_selected="false"
       hide_knots="false" /><inkscape:path-effect
       effect="skeletal"
       id="path-effect3077"
       is_visible="true"
       lpeversion="1"
       pattern="M 0,0 H 1"
       copytype="single_stretched"
       prop_scale="1"
       scale_y_rel="false"
       spacing="0"
       normal_offset="0"
       tang_offset="0"
       prop_units="false"
       vertical_pattern="false"
       hide_knot="false"
       fuse_tolerance="0" /><inkscape:path-effect
       effect="skeletal"
       id="path-effect2917"
       is_visible="true"
       lpeversion="1"
       pattern="M 0,0 H 1"
       copytype="single_stretched"
       prop_scale="1"
       scale_y_rel="false"
       spacing="0"
       normal_offset="0"
       tang_offset="0"
       prop_units="false"
       vertical_pattern="false"
       hide_knot="false"
       fuse_tolerance="0" /><inkscape:path-effect
       effect="fillet_chamfer"
       id="path-effect2915"
       is_visible="true"
       lpeversion="1"
       nodesatellites_param="F,0,0,1,0,12.170833,0,1 @ F,0,0,1,0,12.170833,0,1 @ F,0,0,1,0,12.170833,0,1 @ F,0,0,1,0,12.170833,0,1 @ F,0,0,1,0,12.170833,0,1 @ F,0,0,1,0,12.170833,0,1 @ F,0,0,1,0,12.170833,0,1 @ F,0,0,1,0,12.170833,0,1 @ F,0,0,1,0,1.3971671,0,1 @ F,0,0,1,0,12.170833,0,1 @ F,0,0,1,0,12.170833,0,1 @ F,0,0,1,0,12.170833,0,1 @ F,0,0,1,0,12.170833,0,1"
       unit="px"
       method="auto"
       mode="F"
       radius="46"
       chamfer_steps="1"
       flexible="false"
       use_knot_distance="true"
       apply_no_radius="true"
       apply_with_radius="true"
       only_selected="false"
       hide_knots="false" /><inkscape:path-effect
       effect="fillet_chamfer"
       id="path-effect2769"
       is_visible="true"
       lpeversion="1"
       nodesatellites_param="F,0,0,1,0,1.5875,0,1 @ F,0,0,1,0,1.5875,0,1 @ F,0,0,1,0,1.5875,0,1 @ F,0,0,1,0,1.5875,0,1 @ F,0,0,1,0,1.5875,0,1 @ F,0,0,1,0,1.5875,0,1 @ F,0,0,1,0,1.5875,0,1 @ F,0,0,1,0,1.5875,0,1 @ F,0,0,1,0,1.5875,0,1 @ F,0,0,1,0,1.5875,0,1 @ F,0,0,1,0,1.5875,0,1 @ F,0,0,1,0,1.5875,0,1 @ F,0,0,1,0,1.5875,0,1 @ F,0,0,1,0,1.5875,0,1 @ F,0,0,1,0,1.5875,0,1 @ F,0,0,1,0,1.5875,0,1 @ F,0,0,1,0,1.5875,0,1 @ F,0,0,1,0,1.5875,0,1 @ F,0,0,1,0,1.5875,0,1 @ F,0,0,1,0,1.5875,0,1 @ F,0,0,1,0,1.5875,0,1 @ F,0,0,1,0,1.5875,0,1 @ F,0,0,1,0,1.5875,0,1 @ F,0,0,1,0,1.5875,0,1 @ F,0,0,1,0,1.5875,0,1 @ F,0,0,1,0,1.5875,0,1 @ F,0,0,1,0,1.5875,0,1 @ F,0,0,1,0,1.5875,0,1 @ F,0,0,1,0,1.5875,0,1 @ F,0,0,1,0,1.5875,0,1 @ F,0,0,1,0,1.5875,0,1 @ F,0,0,1,0,1.5875,0,1 @ F,0,0,1,0,1.5875,0,1"
       unit="px"
       method="auto"
       mode="F"
       radius="6"
       chamfer_steps="1"
       flexible="false"
       use_knot_distance="true"
       apply_no_radius="true"
       apply_with_radius="true"
       only_selected="false"
       hide_knots="false" /><inkscape:path-effect
       effect="perspective-envelope"
       up_left_point="65.974122,86.814302"
       up_right_point="101.16644,86.814302"
       down_left_point="65.51895,89.878221"
       down_right_point="101.16644,90.223062"
       id="path-effect2766"
       is_visible="true"
       lpeversion="1"
       deform_type="perspective"
       horizontal_mirror="false"
       vertical_mirror="false"
       overflow_perspective="false" /><inkscape:path-effect
       effect="skeletal"
       id="path-effect2764"
       is_visible="true"
       lpeversion="1"
       pattern="M 0,0 H 1"
       copytype="single_stretched"
       prop_scale="1"
       scale_y_rel="false"
       spacing="0"
       normal_offset="0"
       tang_offset="0"
       prop_units="false"
       vertical_pattern="false"
       hide_knot="false"
       fuse_tolerance="0" /><inkscape:path-effect
       effect="attach_path"
       id="path-effect2746"
       lpeversion="1"
       is_visible="true"
       startpath=""
       startposition="0"
       startcurvestart="0,0 , 19.999238,-0.17453071"
       startcurveend="0,0 , 20,0"
       endpath=""
       endposition="0"
       endcurvestart="0,0 , 20,0"
       endcurveend="0,0 , 20,0" /><inkscape:path-effect
       effect="skeletal"
       id="path-effect2744"
       is_visible="true"
       lpeversion="1"
       pattern="M 0,0 H 1"
       copytype="single_stretched"
       prop_scale="1"
       scale_y_rel="false"
       spacing="0"
       normal_offset="0"
       tang_offset="0"
       prop_units="false"
       vertical_pattern="false"
       hide_knot="false"
       fuse_tolerance="0" /><inkscape:path-effect
       effect="envelope"
       id="path-effect2742"
       is_visible="true"
       lpeversion="1"
       yy="true"
       xx="true"
       bendpath1="M 61.723576,86.814461 H 108.39262"
       bendpath2="M 108.39262,86.814461 V 92.08355"
       bendpath3="M 61.723576,92.08355 H 108.39262"
       bendpath4="M 61.723576,86.814461 V 92.08355" /><inkscape:path-effect
       effect="skeletal"
       id="path-effect2740"
       is_visible="true"
       lpeversion="1"
       pattern="M 0,0 H 1"
       copytype="single_stretched"
       prop_scale="1.01"
       scale_y_rel="false"
       spacing="0"
       normal_offset="0"
       tang_offset="0"
       prop_units="false"
       vertical_pattern="false"
       hide_knot="false"
       fuse_tolerance="0" /><inkscape:path-effect
       effect="skeletal"
       id="path-effect2736"
       is_visible="true"
       lpeversion="1"
       pattern="M 0,0 H 1"
       copytype="single_stretched"
       prop_scale="1"
       scale_y_rel="false"
       spacing="0"
       normal_offset="0"
       tang_offset="0"
       prop_units="false"
       vertical_pattern="false"
       hide_knot="false"
       fuse_tolerance="0" /><inkscape:path-effect
       effect="fillet_chamfer"
       id="path-effect2484"
       is_visible="true"
       lpeversion="1"
       nodesatellites_param="F,0,0,1,0,0,0,1 @ F,0,0,1,0,0,0,1 @ F,0,0,1,0,0,0,1 @ F,0,0,1,0,0,0,1 @ F,0,0,1,0,0,0,1 @ F,0,0,1,0,0,0,1 @ F,0,0,1,0,0,0,1 @ F,0,0,1,0,0,0,1 @ F,0,0,1,0,0,0,1 @ F,0,0,1,0,0,0,1 @ F,0,0,1,0,0,0,1 @ F,0,0,1,0,0,0,1 @ F,0,0,1,0,0,0,1 @ F,0,0,1,0,0,0,1 @ F,0,0,1,0,0,0,1 @ F,0,0,1,0,0,0,1 @ F,0,0,1,0,0,0,1 @ F,0,0,1,0,0,0,1 @ F,0,0,1,0,0,0,1 @ F,0,0,1,0,0,0,1 @ F,0,0,1,0,0,0,1"
       unit="px"
       method="auto"
       mode="F"
       radius="6"
       chamfer_steps="1"
       flexible="false"
       use_knot_distance="true"
       apply_no_radius="true"
       apply_with_radius="true"
       only_selected="false"
       hide_knots="false" /><inkscape:path-effect
       effect="fillet_chamfer"
       id="path-effect2210"
       is_visible="true"
       lpeversion="1"
       nodesatellites_param="F,0,0,1,0,2.9104167,0,1 @ F,0,0,1,0,2.9104167,0,1 @ F,0,0,1,0,2.9104167,0,1 @ F,0,0,1,0,2.9104167,0,1 @ F,0,0,1,0,2.9104167,0,1 @ F,0,0,1,0,2.9104167,0,1 @ F,0,0,1,0,2.9104167,0,1 @ F,0,0,1,0,2.9104167,0,1 @ F,0,0,1,0,2.9104167,0,1 @ F,0,0,1,0,2.9104167,0,1 @ F,0,0,1,0,2.9104167,0,1"
       unit="px"
       method="auto"
       mode="F"
       radius="11"
       chamfer_steps="1"
       flexible="false"
       use_knot_distance="true"
       apply_no_radius="true"
       apply_with_radius="true"
       only_selected="false"
       hide_knots="false" /><inkscape:path-effect
       effect="fillet_chamfer"
       id="path-effect2915-7"
       is_visible="true"
       lpeversion="1"
       nodesatellites_param="F,0,0,1,0,12.170833,0,1 @ F,0,0,1,0,12.170833,0,1 @ F,0,0,1,0,12.170833,0,1 @ F,0,0,1,0,12.170833,0,1 @ F,0,0,1,0,12.170833,0,1 @ F,0,0,1,0,12.170833,0,1 @ F,0,0,1,0,12.170833,0,1 @ F,0,0,1,0,12.170833,0,1 @ F,0,0,1,0,1.3971671,0,1 @ F,0,0,1,0,12.170833,0,1 @ F,0,0,1,0,12.170833,0,1 @ F,0,0,1,0,12.170833,0,1 @ F,0,0,1,0,12.170833,0,1"
       unit="px"
       method="auto"
       mode="F"
       radius="46"
       chamfer_steps="1"
       flexible="false"
       use_knot_distance="true"
       apply_no_radius="true"
       apply_with_radius="true"
       only_selected="false"
       hide_knots="false" /><inkscape:path-effect
       effect="skeletal"
       id="path-effect2917-9"
       is_visible="true"
       lpeversion="1"
       pattern="M 0,0 H 1"
       copytype="single_stretched"
       prop_scale="1"
       scale_y_rel="false"
       spacing="0"
       normal_offset="0"
       tang_offset="0"
       prop_units="false"
       vertical_pattern="false"
       hide_knot="false"
       fuse_tolerance="0" /></defs><g
     inkscape:label="Warstwa 1"
     inkscape:groupmode="layer"
     id="layer1"><g
       inkscape:groupmode="layer"
       id="layer4"
       inkscape:label="0" /><path
       id="path2771-1"
       style="opacity:1;fill:#37244b;fill-opacity:1;stroke-width:0.302249"
       d="m 181.26162,96.051879 c -1.47652,0.484119 -2.92248,1.057455 -4.35052,1.669978 -0.44468,0.190733 -0.88668,0.387752 -1.33355,0.573298 -0.1266,0.05257 -0.25329,0.105401 -0.38351,0.148236 0,10e-7 -1e-5,2e-6 -1e-5,4e-6 -0.0547,0.018 -0.12085,0.06276 -0.1669,0.02815 -8.55632,3.224005 -15.75386,9.902395 -19.60821,18.193885 -0.49435,0.7452 -0.83993,1.57812 -1.18457,2.4033 -0.51321,1.22874 -0.97345,2.47892 -1.42272,3.73246 0,0 0,0 0,0 -1.11035,3.09805 -2.13943,6.22454 -3.21095,9.33623 0,0 0,0 0,0 -0.24439,0.70972 -0.35107,1.45885 -0.50133,2.19427 -0.2457,1.20261 -0.5071,2.40251 -0.8226,3.58872 -0.80674,3.03322 -1.9439,6.01719 -3.75061,8.58373 -3.00452,4.26811 -7.22793,7.52737 -11.59653,10.38381 -1e-5,0 -1e-5,0 -1e-5,0 -1.18023,0.77171 -2.29371,1.68674 -3.09267,2.84869 -0.54207,0.78835 -0.94757,1.73602 -0.81965,2.68415 0.11539,0.8552 0.73346,1.57892 1.486,2.00125 0,0 0,1e-5 0,1e-5 1.14731,0.64387 2.50863,0.793 3.82424,0.79999 0,0 0,0 0,0 5.97382,0.0317 11.98362,-0.0567 17.86343,-1.11279 7.1633,-1.28661 14.1723,-3.69392 20.36409,-7.51883 5.66688,-3.50065 10.65413,-8.31048 13.59297,-14.28805 0,0 1e-5,-1e-5 1e-5,-1e-5 0.14135,-0.28751 0.28276,-0.57517 0.43743,-0.85574 1e-5,0 1e-5,-1e-5 1e-5,-1e-5 0.0461,-0.0836 0.0925,-0.16707 0.14656,-0.24572 0.023,-0.0335 0.0428,-0.0897 0.0831,-0.0843 3.13356,-6.96866 6.65146,-13.88093 11.69808,-19.61792 l 1e-5,-10e-6 c 2.98562,-3.39405 6.6599,-6.15268 10.69773,-8.18476 2.26468,-1.13972 4.56554,-2.21858 6.9519,-3.07474 0,0 1e-5,0 1e-5,0 0.99129,-0.35565 1.99708,-0.83136 3.04937,-0.78877 -3.17323,-3.54296 -6.342,-7.11917 -9.97283,-10.191464 -1.38038,-1.16804 -2.89378,-2.187026 -4.554,-2.903586 0,-10e-7 0,-3e-6 -10e-6,-5e-6 -2.51387,-1.084997 -5.20088,-1.754682 -7.92302,-2.049123 -0.84807,-0.09173 -1.7003,-0.147474 -2.55326,-0.156315 0,0 -1e-5,0 -1e-5,0 -0.23819,-0.0025 -0.47644,-0.0013 -0.71454,0.0057 -0.0635,0.0019 -0.12703,0.0042 -0.1905,0.0072 -0.0229,0.0011 -0.0464,0.0022 -0.0693,0.0037 z"
       inkscape:path-effect="#path-effect2915-7;#path-effect2917-9"
       inkscape:original-d="m 193.2346,94.166535 c -6.44884,0.0039 -12.73228,1.576112 -17.9586,4.493395 -0.0827,-0.06305 -0.16565,-0.125841 -0.24887,-0.188385 l -12.88019,8.051755 -9.2301,13.91388 c -0.59804,3.59695 -3.17538,11.64755 -4.43259,14.73269 -0.69613,13.10013 -12.11856,20.21258 -26.0426,27.887 6.35639,2.6312 10.57193,2.12244 17.64254,2.13419 19.60545,-0.0103 39.88465,-8.52223 46.64964,-24.15696 0.048,0.007 0.0332,0.076 0.0813,0.0825 3.31076,-18.63375 20.08381,-28.54797 33.77067,-32.06666 0.37859,7.5e-4 -1.75194,0.38515 -1.37357,0.40046 -1.77111,-10.629291 -25.9776,-18.163704 -25.9776,-15.283874 z"
       class="UnoptimicedTransforms"
       sodipodi:nodetypes="scccccccccccss"
       transform="rotate(-2.5567763,-725.51478,677.01296)" /><path
       id="rect2595-6"
       style="opacity:1;fill:#37244b;fill-opacity:1;stroke-width:0.320704"
       d="m 71.879035,50.482886 -26.256773,1.293847 a 8.7494409,8.7494409 166.89506 0 0 -3.042634,0.70832 l -4.53059,1.959512 a 15.806939,15.806939 150.87616 0 0 -2.759701,1.537534 l -0.623498,0.434294 a 0.46292569,0.46292569 71.39818 0 0 0.283528,0.842397 l 5.201582,-0.212989 c 0.876018,-0.03587 0.965706,0.283258 0.231073,0.761576 -0.245729,0.159994 -0.48876,0.323997 -0.728915,0.49198 -0.718325,0.502452 -1.831558,1.388625 -2.48734,1.970397 -4.527169,4.016239 -7.76091,9.32032 -10.290207,14.853979 -0.364467,0.79739 -0.929062,2.10212 -1.262887,2.91282 -2.675607,6.49776 -4.582141,13.295728 -6.286678,20.127794 -0.21222,0.850612 -0.550779,2.231153 -0.755888,3.083573 -1.594506,6.62671 -3.017389,13.29836 -4.770273,19.88231 -0.22518,0.84579 -0.917081,2.03175 -1.537779,2.65097 L 0.17569813,135.83869 a 0.59813467,0.59813467 65.713792 0 0 0.46042259,1.02038 L 13.767754,136.02348 a 14.464422,14.464422 2.622346 0 1 3.152744,0.1444 l 26.014597,4.06708 a 38.43736,38.43736 6.5205808 0 0 3.151774,0.36025 l 12.134452,0.88163 c 0.874447,0.0635 2.296805,0.15066 3.166776,0.0558 0.586646,-0.064 1.774955,-0.1116 2.651076,-0.14475 9.383638,-0.35507 18.705104,-1.58438 27.943833,-3.16633 0.864145,-0.14797 2.264219,-0.39374 3.127024,-0.5495 2.677756,-0.48339 5.34883,-0.99966 8.0133,-1.54606 0.85887,-0.17612 2.25009,-0.46797 3.10743,-0.65145 0.0831,-0.0178 0.16624,-0.0356 0.24935,-0.0534 0.85724,-0.18394 1.99241,-0.43226 2.53695,-0.54779 0.4717,-0.094 0.4717,-0.094 0.4717,-0.094 l 11.14194,-0.45768 a 16.108167,16.108167 172.01928 0 0 3.12909,-0.4387 l 8.46274,-2.04878 a 0.34853842,0.34853842 88.773735 0 0 -0.0146,-0.68071 l -14.06253,-2.7734 c -0.86018,-0.16965 -1.57771,-0.32537 -1.5665,-0.32537 -0.0265,-0.0371 -0.0265,-0.0371 -0.0265,-0.0371 -0.10346,-0.1273 -0.10346,-0.1273 -0.10346,-0.1273 -0.39644,-0.46802 -0.39644,-0.46802 -0.39644,-0.46802 -1.25569,-1.51639 -1.89298,-2.31277 -2.42519,-3.0095 -0.99389,-1.30113 -1.94511,-2.63397 -2.85466,-3.99382 -0.48743,-0.72875 -1.25468,-1.92559 -1.71353,-2.67267 -3.94258,-6.4192 -6.99686,-13.38006 -8.84887,-20.637525 C 99.993497,96.259259 99.806792,94.855714 99.739123,93.981616 98.944687,83.719639 94.895107,73.589371 87.941944,65.880247 87.354753,65.229215 86.363685,64.209313 85.728823,63.604706 82.689908,60.710616 79.196605,58.275693 75.381655,56.532798 74.584259,56.168501 73.346315,55.675714 72.624093,55.420594 l 7.693075,-2.7812 a 0.44557131,0.44557131 85.802163 0 0 -0.0628,-0.855686 L 75.02035,50.720715 a 12.653979,12.653979 4.3295966 0 0 -3.141315,-0.237829 z"
       inkscape:path-effect="#path-effect2769"
       inkscape:original-d="m 73.464611,50.404754 -29.427925,1.450111 -7.444706,3.219888 -3.228784,2.248986 8.373924,-0.342887 c -1.175095,0.670501 -2.299623,1.427307 -3.356238,2.267607 -5.586897,4.443098 -9.319115,10.789648 -12.150564,17.325698 -3.215069,7.42159 -5.355742,15.26703 -7.285475,23.13113 -1.876212,7.646013 -3.471432,15.365743 -5.558915,22.954723 l -14.33410312,14.29987 16.30022512,-1.03721 29.151493,4.5575 15.301104,1.11171 c 0.884297,0.0847 1.761982,-0.11848 2.647872,-0.15238 10.449864,-0.28366 20.824173,-1.68631 31.094589,-3.48917 3.72307,-0.65354 7.433232,-1.37155 11.130652,-2.14663 1.11897,-0.23455 2.23696,-0.47514 3.35406,-0.71774 0.32838,-0.0713 0.65649,-0.14287 0.98524,-0.21262 0.1568,-0.0333 0.31282,-0.0713 0.4717,-0.094 l 12.7281,-0.52284 11.5486,-2.79586 -17.17753,-3.38774 c -3e-5,-0.007 -0.005,-0.0124 -0.009,-0.0182 -0.008,-0.0127 -0.0173,-0.0251 -0.0265,-0.0371 -0.0332,-0.0435 -0.0684,-0.0852 -0.10346,-0.1273 -0.13086,-0.15703 -0.26422,-0.3121 -0.39644,-0.46802 -0.49118,-0.57926 -0.97471,-1.1648 -1.44827,-1.75822 -1.68216,-2.10794 -3.24777,-4.30601 -4.70125,-6.57316 -4.63869,-7.23545 -8.14983,-15.19836 -10.067172,-23.524803 -0.50554,-11.32082 -4.98882,-22.62471 -12.97887,-30.84464 -3.659386,-3.764676 -8.057616,-6.85534 -12.934006,-8.814685 -0.429118,-0.172428 -0.862934,-0.332187 -1.298869,-0.486178 l 9.186009,-3.320925 z" /><path
       id="path2316"
       style="opacity:1;fill:#37244b;fill-opacity:1;stroke-width:0.274136"
       d="m 98.254068,0.03419955 c -0.539345,0.07136791 -1.058297,0.25345779 -1.52535,0.535215 L 57.455604,15.68133 c -0.71451,0.818316 -1.822038,1.158139 -2.866795,0.87962 -0.243317,0.09725 -0.478378,0.187849 -0.717318,0.281359 l -0.04341,-0.03375 6.710059,-6.651303 -11.985324,4.171147 -12.17892,6.473408 c -0.03384,0.144228 -0.06415,0.288201 -0.0909,0.431848 -1.588605,0.142277 -4.158147,0.256502 -5.746962,0.255072 -2.174925,-0.002 -4.335408,-0.115346 -6.4568,-0.338622 -1.586382,-0.166967 -2.886877,0.371327 -2.85891,1.287919 2.429113,18.396176 16.014357,30.177893 32.407733,30.760233 1.593148,0.05659 4.179478,-0.06005 5.760155,-0.260833 8.821056,-1.120521 16.84686,-5.505394 22.33096,-12.197812 1.01772,-1.241902 1.7529,-2.322218 1.76621,-2.311965 l 8.331976,-11.174919 c 1.15518,-1.549538 2.114329,-3.240816 2.85508,-5.034397 L 101.81049,4.9369706 c 0.6563,-1.5889794 0.16726,-3.4328684 -1.18803,-4.47935205 -0.729546,-0.38327863 -1.556006,-0.53103242 -2.368392,-0.423419 z"
       inkscape:path-effect="#path-effect2484"
       inkscape:original-d="m 98.254068,0.03419955 a 4.0833172,4.0151711 82.189585 0 0 -1.52535,0.535215 L 57.455604,15.68133 a 2.9177587,2.8690645 82.189569 0 1 -2.866795,0.87962 c -0.243317,0.09725 -0.478378,0.187849 -0.717318,0.281359 l -0.04341,-0.03375 6.710059,-6.651303 -11.985324,4.171147 -12.17892,6.473408 a 11.185474,16.910623 70.205117 0 0 -0.0909,0.431848 c -1.588605,0.142277 -4.158147,0.256502 -5.746962,0.255072 -2.174925,-0.002 -4.335408,-0.115346 -6.4568,-0.338622 -1.586382,-0.166967 -2.886877,0.371327 -2.85891,1.287919 2.429113,18.396176 16.014357,30.177893 32.407733,30.760233 1.593148,0.05659 4.179478,-0.06005 5.760155,-0.260833 8.821056,-1.120521 16.84686,-5.505394 22.33096,-12.197812 1.01772,-1.241902 1.7529,-2.322218 1.76621,-2.311965 l 8.331976,-11.174919 a 23.355744,22.965962 82.189618 0 0 2.85508,-5.034397 L 101.81049,4.9369706 a 3.7784301,3.7153722 82.189585 0 0 -1.18803,-4.47935205 4.0833172,4.0151711 82.189585 0 0 -2.368392,-0.423419 z" /><path
       id="path2771"
       style="opacity:1;fill:#ffffff;fill-opacity:1;stroke-width:0.310381"
       d="m 166.06013,53.388605 -11.13118,2.27784 c -0.34471,0.07054 -0.68458,0.168041 -1.01183,0.297284 -1.15382,0.455676 -2.28699,0.962401 -3.40665,1.496539 -0.31838,0.151887 -0.6355,0.306423 -0.95205,0.462107 0,10e-7 0,2e-6 0,2e-6 -0.12879,0.06334 -0.25757,0.12669 -0.38658,0.189596 -0.28488,0.138919 -0.56647,0.286604 -0.86264,0.399474 v 0 l -0.21787,0.09398 0,2e-6 c -0.0278,0.01199 -0.0495,0.02136 -0.0773,0.03336 -0.01,0.0042 -0.01,0.0042 -0.01,0.0042 -0.36884,0.158707 -0.73675,0.31972 -1.10882,0.470715 l 0,0 -1e-5,2e-6 c -0.11298,0.04585 -0.22588,0.09216 -0.3413,0.131474 l 0,0 -1e-5,2e-6 c -0.0251,0.006 -0.0471,0.01134 -0.0722,0.01737 -0.0193,0.0046 -0.0193,0.0046 -0.0193,0.0046 -2.69865,1.021783 -4.96302,2.918883 -7.04609,4.915775 0,10e-7 0,2e-6 -1e-5,3e-6 -0.25453,0.244001 -0.50887,0.488207 -0.7611,0.734585 -0.87171,0.851497 -1.72234,1.724272 -2.57196,2.597815 -0.24595,0.252871 -0.49189,0.505744 -0.73727,0.759169 -0.57882,0.597817 -1.15885,1.195527 -1.77711,1.752467 -0.12823,0.115511 -0.0726,0.201765 0.0849,0.131148 l 7.40309,-3.319796 c 0.32128,-0.144072 0.63164,-0.312482 0.92755,-0.50331 0,-10e-7 0,-10e-7 0,-2e-6 l 5.14457,-3.317685 1e-5,-3e-6 c 0.0681,-0.04394 0.16482,0.06313 0.11417,0.126444 l -2.92415,3.655745 c -0.22004,0.275086 -0.42183,0.564766 -0.6036,0.866504 l -1e-5,5e-6 -2.35876,3.91542 c 0,1e-6 0,3e-6 0,4e-6 -0.0562,0.09332 0.0791,0.223936 0.17036,0.164484 l 8.82222,-5.745548 c 0.0788,-0.0513 0.0166,-0.204131 -0.0756,-0.185845 -0.19463,0.09936 -0.33607,0.296598 -0.36772,0.512822 l -1.34282,2.994379 c -0.14435,0.321878 -0.2923,0.642141 -0.44382,0.960706 l -0.59353,1.247893 c -0.11222,0.23593 -0.22678,0.470799 -0.34736,0.702566 -0.17045,0.341423 -0.34253,0.682185 -0.50014,1.029724 0,1e-6 0,3e-6 0,4e-6 -0.14571,0.321278 -0.2852,0.645438 -0.41575,0.973164 -0.0949,0.238118 -0.1831,0.479059 -0.25639,0.724674 0,2e-6 0,4e-6 0,5e-6 -0.10078,0.337757 -0.22303,0.691136 -0.15923,1.037787 0.0258,0.140168 0.15878,0.28186 0.30116,0.275451 0.58723,-0.122839 1.16233,-0.311648 1.68707,-0.602464 0,0 0,-10e-7 1e-5,-2e-6 0.30848,-0.170966 0.61803,-0.340016 0.92536,-0.513063 0.65019,-0.36611 1.29006,-0.750184 1.93378,-1.127554 v 0 c 0.30426,-0.17837 0.60957,-0.354966 0.91523,-0.530924 v 0 c 0.50591,-0.291224 1.01774,-0.575331 1.55706,-0.798656 0.32529,-0.134694 0.6569,-0.277754 1.00796,-0.304402 0,0 0,0 0,0 0.25791,-0.01957 0.55672,0.157186 0.59573,0.412876 0.009,0.06097 0.009,0.135589 0.0113,0.197183 0,2e-6 0,4e-6 0,5e-6 0.006,0.130463 0.01,0.26098 0.0134,0.391515 0.0268,0.998517 0.005,1.998257 -0.0625,2.994868 v 0 c -0.0237,0.351972 -0.0521,0.703677 -0.0886,1.05456 -0.0411,0.39544 -0.094,0.789919 -0.17086,1.179991 0,4e-6 0,7e-6 0,1e-5 0,3e-6 0,7e-6 0,1e-5 -0.0682,0.345999 -0.14802,0.690724 -0.26268,1.024214 v 0 l 0,10e-6 c -0.12648,0.367876 0.0188,0.814564 0.40547,0.857288 l 2.8524,0.315173 c 0.44656,0.04934 0.89313,0.09858 1.33971,0.147719 l 2.50672,0.275815 c 1e-5,0 1e-5,0 1e-5,10e-7 0.36155,0.03979 0.66767,0.371738 0.6781,0.73532 l 0.18886,6.583098 c 0.006,0.193051 0.27519,0.316101 0.42464,0.19378 1e-5,-2e-6 1e-5,-4e-6 1e-5,-6e-6 l 2.97547,-2.435525 c 0.27188,-0.222546 0.51914,-0.475151 0.73582,-0.751731 l 2.78074,-3.549452 c 0.0161,-0.02049 0.0342,-0.04363 0.0502,-0.06413 0.009,-0.01121 0.014,-0.01791 0.014,-0.01791 0.005,-0.0064 0.009,-0.0055 0.0132,-3.92e-4 0,2e-6 0,5e-6 10e-6,7e-6 0.0219,0.02804 0.0325,0.11979 0.0394,0.154675 l 0,0 c -0.005,0.381699 -0.0223,0.763566 -0.0681,1.142549 0,3e-6 0,6e-6 0,1e-5 -0.0498,0.412225 -0.11118,0.822949 -0.17327,1.233502 0,3e-6 0,7e-6 0,10e-6 -0.0527,0.348743 -0.1048,0.697586 -0.15676,1.046446 -0.0616,0.413503 -0.12112,0.827417 -0.16617,1.243047 v 0 l 0,1e-5 v 0 c -0.038,0.350726 -0.10604,0.704855 -0.0603,1.054658 v 0 l 1e-5,1e-5 c 0.01,0.07647 0.009,0.18909 0.0863,0.195999 l 0,0 0.10764,-0.07769 0,0 c 0.0128,-0.0092 0.0128,-0.0092 0.0128,-0.0092 1.75292,-3.476923 4.02664,-6.691195 6.74027,-9.483674 0.24585,-0.252996 0.49505,-0.502742 0.74678,-0.749892 2.09509,-2.056995 4.40135,-3.942134 7.0402,-5.229428 0.31703,-0.154652 0.64009,-0.296629 0.95865,-0.448094 2.02921,-0.964826 3.95165,-2.147988 6.00874,-3.051855 0.32279,-0.141832 0.64968,-0.274176 0.97316,-0.414432 1e-5,-2e-6 1e-5,-3e-6 1e-5,-4e-6 0.67086,-0.290875 1.34842,-0.592425 2.07132,-0.702352 0.20788,-0.03161 0.30414,-0.270596 0.15762,-0.421407 -3.36765,-3.466237 -6.6784,-7.014886 -10.46345,-10.019768 -0.27608,-0.219177 -0.55088,-0.442761 -0.85405,-0.622633 0,-10e-7 0,-3e-6 0,-5e-6 -0.25757,-0.152816 -0.52814,-0.282597 -0.80197,-0.40386 -1e-5,-1e-6 -1e-5,-3e-6 -1e-5,-4e-6 -0.32208,-0.142626 -0.6472,-0.278395 -0.9743,-0.409102 0,-2e-6 0,-3e-6 0,-4e-6 -0.49765,-0.198859 -1.00074,-0.383872 -1.50601,-0.562463 -0.3326,-0.117557 -0.66597,-0.232943 -1.00058,-0.344658 0,-10e-7 0,-2e-6 -1e-5,-3e-6 -1.14022,-0.380692 -2.29226,-0.726557 -3.42295,-1.134717 0,-10e-7 0,-2e-6 -1e-5,-3e-6 -0.32873,-0.11867 -0.67448,-0.194759 -1.0233,-0.216474 l -6.34075,-0.39472 c -0.35004,-0.02179 -0.70296,0.0029 -1.04656,0.07321 z"
       inkscape:path-effect="#path-effect3086;#path-effect4617"
       inkscape:original-d="m 166.57855,53.282517 -12.16802,2.490016 c -1.48911,0.565785 -2.94322,1.221571 -4.37684,1.917163 -0.44653,0.216644 -0.88981,0.439951 -1.33882,0.65136 -0.12718,0.05989 -0.25437,0.120353 -0.38567,0.170391 -0.10327,0.03935 -0.2035,0.08758 -0.3049,0.131522 -0.20663,0.08955 -0.41332,0.178633 -0.62058,0.266681 -0.20571,0.08739 -0.41165,0.174432 -0.61947,0.25664 -0.0696,0.02755 -0.13923,0.05474 -0.21008,0.07887 -0.0294,0.01002 -0.0658,0.03962 -0.0915,0.02201 -2.90688,0.947001 -5.22,3.15851 -7.42728,5.282015 -1.13226,1.089277 -2.22494,2.219181 -3.32078,3.345435 -0.8262,0.849135 -1.63912,1.715472 -2.54344,2.480034 l 8.36877,-3.75284 6.034,-3.891268 -3.58523,4.482213 -2.90489,4.821965 9.70906,-6.323112 -0.67025,0.132921 -1.77588,3.960055 -1.04811,2.203629 c -0.0419,0.07382 -0.0809,0.149408 -0.12007,0.224698 -0.25729,0.495027 -0.49441,1.000729 -0.71306,1.514157 -0.23844,0.559885 -0.47103,1.128319 -0.58616,1.726189 -0.0373,0.193758 -0.0713,0.397318 -0.0179,0.587213 0.0354,0.126085 0.15648,0.219116 0.28677,0.21325 0.77507,-0.03487 1.46691,-0.48854 2.14947,-0.85926 0.96557,-0.524452 1.90197,-1.100776 2.85388,-1.649873 0.81042,-0.467473 1.62037,-0.957456 2.50935,-1.246767 0.25784,-0.08388 0.53489,-0.167324 0.79721,-0.09904 0.19221,0.05013 0.30934,0.251317 0.31818,0.450627 0.0597,1.35022 0.0288,2.704497 -0.0836,4.051352 -0.0623,0.747593 -0.14775,1.496722 -0.33699,2.222495 -0.12327,0.472862 -0.25599,1.019416 -0.67827,1.262243 l 4.46064,0.492874 3.83569,0.422041 0.22304,7.774848 3.79443,-3.105875 3.17135,-4.048043 c 0.0278,-0.04067 -0.0525,0.06837 -0.003,0.06787 0.0365,-6.1e-4 0.0485,0.05023 0.0556,0.08642 0.0388,0.202339 0.007,0.411166 -0.0118,0.616404 -0.0701,0.764643 -0.19593,1.523177 -0.3082,2.282746 -0.11269,0.762356 -0.23625,1.524458 -0.29261,2.293088 -0.0154,0.209964 -0.0436,0.425451 0.007,0.629753 0.0101,0.04006 0.0265,0.09058 0.0673,0.09425 0.0508,0.005 0.0885,-0.04696 0.12044,-0.08693 1.77837,-3.665024 4.23942,-6.979977 7.11147,-9.860797 2.32244,-2.329526 4.90288,-4.472239 7.89451,-5.82738 2.36757,-1.072448 4.57211,-2.491877 6.97497,-3.4819 1.00225,-0.412926 2.00168,-0.947168 3.08485,-0.951825 -3.62002,-3.713349 -7.15384,-7.548412 -11.24843,-10.725478 -0.5149,-0.399542 -1.12527,-0.654454 -1.72494,-0.908029 -0.81862,-0.346168 -1.65516,-0.647567 -2.49498,-0.938087 -1.46902,-0.508193 -2.96666,-0.934564 -4.4192,-1.488458 z"
       class="UnoptimicedTransforms"
       sodipodi:nodetypes="ccssssssscssccccccccccsscsssscccscccccccccsscccssscssscc" /><path
       id="rect3090"
       style="opacity:1;fill:#ffffff;fill-opacity:1;stroke-width:0.469049"
       d="m 117.90043,47.294449 c -6.23921,2.087095 -12.52115,3.606373 -18.672405,5.424981 -0.417276,0.123367 -1.085294,0.356301 -1.493676,0.515667 -1.999426,0.780247 -4.073096,1.530453 -6.092679,2.055938 -0.423651,0.110231 -0.769609,0.18964 -0.769611,0.18964 4.514806,-0.149857 17.389091,-1.249052 21.317791,-1.584868 0.43444,-0.03713 0.78664,-0.06716 0.78664,-0.06716 -0.87809,5.812203 -1.99038,10.68206 -4.4696,14.635343 -0.23291,0.371381 -0.18378,0.412524 0.11556,0.09228 5.22754,-5.592669 7.65532,-13.138415 9.81416,-20.752455 0.11956,-0.421689 -0.12045,-0.648435 -0.53618,-0.509368 z"
       inkscape:path-effect="#path-effect3101;#path-effect3121;#path-effect3123"
       inkscape:original-d="m 119.10746,47.328377 -20.723327,5.182034 -7.903629,2.656168 22.274296,-1.724998 -4.07727,15.989005 z"
       sodipodi:nodetypes="cccccc"
       transform="rotate(-2.5567763,-739.01209,657.63846)"
       class="UnoptimicedTransforms" /><path
       id="text869"
       style="font-size:120px;font-family:sans-serif;-inkscape-font-specification:sans-serif;white-space:pre;shape-inside:url(#rect871);fill:#ffffff;stroke-width:0.649034;fill-opacity:1"
       d="m 62.121696,59.416882 c -0.306892,0.0091 -0.568091,0.113963 -0.784131,0.314341 -0.246894,0.22901 -0.485911,0.549875 -0.716919,0.962084 -0.368238,0.647456 -0.645293,1.299898 -0.830751,1.95775 -0.213008,0.89935 -0.44428,1.79771 -0.693853,2.69498 -0.24268,0.83689 -0.451975,1.7063 -0.628442,2.60773 -0.129846,0.64405 -0.250621,1.28864 -0.3668,1.93341 -0.300055,0.0131 -0.599463,0.0311 -0.896481,0.0571 -2.987552,0.23584 -5.849488,0.99945 -8.585918,2.29113 -0.644282,0.28638 -1.177299,0.67383 -1.599746,1.16289 -0.422448,0.48906 -0.626827,1.03207 -0.612679,1.62834 0.149258,0.57388 0.112056,1.09884 -0.111759,1.57493 -0.223815,0.47609 -0.424034,0.99824 -0.600454,1.56624 -0.05645,0.28871 -0.144594,0.57258 -0.264565,0.85187 -0.119972,0.27929 -0.212285,0.58403 -0.276797,0.91398 l -0.271955,3.39722 c -0.09068,1.13245 -0.185429,2.28562 -0.284179,3.45932 -0.228764,2.17299 -0.330723,4.36464 -0.305397,6.57533 0.09691,2.17887 0.158,4.37385 0.183327,6.58453 0.03339,2.169453 0.265852,4.326053 0.696507,6.469553 0.49417,2.15292 0.65839,4.32052 0.493148,6.50294 0.04739,0.0919 0.05881,0.19957 0.03461,0.32331 0.03933,0.13315 -0.07164,0.20171 -0.333795,0.20526 -0.794522,0.0519 -1.585219,0.0828 -2.371685,0.0935 -0.722943,0.0201 -1.457247,-0.23728 -2.202402,-0.77224 -0.737091,-0.5762 -1.574031,-0.8067 -2.511734,-0.69117 -0.937704,0.11553 -1.538941,0.51449 -1.803076,1.1968 -0.4083,1.08533 -0.08161,2.08879 0.980174,3.01025 1.172697,1.0228 2.775648,1.68526 4.808377,1.98683 4.122877,0.47306 8.071657,0.58914 11.852501,0.36098 -0.03879,1.38084 -0.06692,2.7543 -0.08148,4.11807 -0.01645,0.78901 0.02169,1.58118 0.11491,2.37643 0.09321,0.79525 0.230008,1.53199 0.410117,2.21064 0.157336,0.55583 0.411883,0.90495 0.763679,1.0465 0.351788,0.14154 0.712741,0.0401 1.083086,-0.30339 0.363452,-0.28314 0.584077,-0.60464 0.661971,-0.9648 0.114443,-0.35807 0.154827,-0.8724 0.120952,-1.54275 -0.036,-0.97428 -0.03189,-1.97647 0.01211,-3.00697 0.03372,-1.38824 0.111925,-2.79733 0.229317,-4.22451 4.242939,-0.52187 8.230612,-1.66513 11.962534,-3.43042 4.239756,-1.95992 7.150934,-4.64718 8.733764,-8.06228 1.34289,-2.85653 0.67994,-5.64985 -1.98915,-8.380083 -0.88734,-0.81069 -1.92982,-1.49599 -3.127705,-2.05567 -1.134356,-0.55025 -2.308705,-1.06425 -3.522704,-1.54144 -0.976044,-0.35701 -1.963988,-0.65185 -2.964224,-0.88513 -0.992172,-0.27451 -2.04784,-0.55839 -3.167058,-0.85175 0.374063,-0.24159 0.680425,-0.47208 0.919378,-0.69127 0.31054,-0.25102 0.616894,-0.48151 0.91937,-0.69128 1.305682,-0.99464 2.583783,-2.01437 3.834007,-3.05969 1.258288,-1.08656 2.330157,-2.22223 3.215372,-3.40658 0.701721,-0.91448 1.272429,-1.82743 1.711994,-2.73836 0.51116,-0.94275 0.74025,-1.94815 0.68776,-3.01696 0.0685,-1.68749 -0.62987,-3.29793 -2.094996,-4.83096 -1.457065,-1.57427 -3.351993,-2.74654 -5.685218,-3.51709 -1.345673,-0.43614 -2.665512,-0.76277 -3.960214,-0.9829 0.0022,-0.0286 0.005,-0.0542 0.0072,-0.0831 0.07367,-0.96804 0.128942,-1.93716 0.166057,-2.90728 0.117122,-1.02634 0.19082,-1.9943 0.221041,-2.90405 0.07368,-0.96804 0.05581,-1.941292 -0.0533,-2.919729 -0.01799,-0.487139 -0.116101,-0.917765 -0.294109,-1.292481 -0.141443,-0.372634 -0.372845,-0.598548 -0.69496,-0.677641 -0.0457,-0.0026 -0.09076,-0.0036 -0.134594,-0.0023 z m -3.325978,16.429365 c 1.056685,-0.0554 2.124944,-0.003 3.204831,0.15691 2.70728,0.52896 3.879782,1.72171 3.516897,3.57772 -0.13709,0.70116 -0.464999,1.37374 -0.983226,2.01836 -0.446639,0.61279 -0.956817,1.21607 -1.530502,1.81002 -1.075783,1.15607 -2.270567,2.25215 -3.584306,3.28804 -1.305683,0.99464 -2.698329,1.9341 -4.178452,2.81798 -0.286347,0.12729 -0.517169,0.30511 -0.6926,0.53373 -0.167366,0.18737 -0.485651,0.31022 -0.954495,0.36799 -0.06862,-0.98633 -0.07762,-1.94294 -0.02725,-2.86917 0.05843,-0.96748 0.144239,-1.90975 0.258126,-2.82656 0.0423,-0.88499 0.08902,-1.79054 0.139396,-2.71677 0.05843,-0.96747 0.11247,-1.91418 0.162835,-2.84041 l -0.0937,-0.52292 c 0.04032,-0.20622 0.132048,-0.34127 0.275222,-0.40491 0.994145,-0.40424 1.293855,-0.93294 0.89857,-1.58575 -0.03127,-0.17441 0.02034,-0.27267 0.155453,-0.29507 0.206697,-0.0542 0.345778,-0.0975 0.417365,-0.12933 0.953824,-0.19802 1.959156,-0.32442 3.015841,-0.37986 z m -5.83568,22.51394 c 0.07348,2.9e-4 0.158095,0.007 0.253379,0.0213 1.286584,0.10599 2.55748,0.12473 3.812789,0.0563 1.318841,-0.059 2.617358,-0.0145 3.89587,0.13278 1.032493,0.0683 2.088753,0.18248 3.16864,0.34269 1.087952,0.11896 2.119675,0.35672 3.095712,0.71372 1.103089,0.375863 1.86859,0.807843 2.296131,1.295683 0.435598,0.44659 0.612453,1.04581 0.530821,1.79764 -0.05843,0.96747 -0.370818,1.89704 -0.937428,2.78912 -0.558548,0.85084 -1.267766,1.63689 -2.127798,2.35811 -1.425654,1.27394 -3.156362,2.26927 -5.192062,2.98585 -1.964113,0.68476 -4.126411,1.21308 -6.486798,1.5844 -0.603962,0.0802 -1.243633,0.17598 -1.919181,0.28796 -0.603962,0.0802 -1.275392,0.17155 -2.014463,0.27411 -0.04442,-1.11006 -0.03356,-2.16937 0.03293,-3.17809 0.130015,-0.99929 0.220518,-1.96194 0.270883,-2.88817 0.194528,-1.32925 0.352888,-2.64272 0.47583,-3.94015 0.194529,-1.32926 0.321647,-2.64717 0.381066,-3.954033 l 0.09686,-0.49523 c 0.02419,-0.12373 0.14638,-0.18484 0.366818,-0.18397 z" /><path
       style="fill:#ffffff;fill-opacity:1;stroke-width:0.193836"
       id="path1876"
       inkscape:path-effect="#path-effect1979"
       sodipodi:type="arc"
       sodipodi:cx="52.206406"
       sodipodi:cy="57.258949"
       sodipodi:rx="1.0136982"
       sodipodi:ry="2.4211435"
       d="m 54.744362,57.22445 c -0.02566,0.690675 -0.11017,1.263129 -0.691154,1.744377 -0.521108,0.43165 -1.312439,0.661004 -1.973563,0.659568 -0.684993,-0.0015 -1.374134,-0.249398 -1.887252,-0.716904 -0.523202,-0.476692 -0.713164,-1.051153 -0.712555,-1.702116 5.67e-4,-0.606208 0.143393,-1.331763 0.718806,-1.733875 0.627541,-0.438541 1.769444,-0.515365 2.972356,-0.361839 1.209212,0.15433 1.676989,0.406244 1.712081,0.697379 0.03714,0.308093 -0.115461,0.787319 -0.138719,1.41341 z"
       class="UnoptimicedTransforms"
       transform="rotate(-2.5567763,-726.8669,677.75687)" /></g></svg>
